<svg width="60" height="52" fill="none" xmlns="http://www.w3.org/2000/svg"><path fill-rule="evenodd" clip-rule="evenodd" d="M52.504 1.503c0-.502-.28-1.035-.68-1.296-.29-.19-2.057-.206-21.834-.206-20.532 0-21.881-.047-22.152.47-.042.08-.058.173-.114.281-.376.723-.266 1.033 1.342 3.803 3.093 5.328 4.75 8.212 4.75 8.265 0 .031-2.874.056-6.388.056-6.29 0-6.395.004-6.723.26-.398.312-.705.866-.705 1.27 0 .272.76 1.66 3.165 5.782.521.894 1.68 2.89 2.576 4.438l3.767 6.5c1.177 2.027 3.509 6.05 5.182 8.937 1.673 2.887 3.31 5.7 3.635 6.25.326.55 1.145 1.96 1.82 3.135C21.47 51.75 21.708 52 22.595 52c.386 0 .604-.085.883-.344.203-.189 1.424-2.172 2.714-4.406 3.546-6.145 3.755-6.5 3.825-6.5.036 0 .348.493.692 1.094 3.582 6.252 5.533 9.526 5.847 9.812.293.268.5.344.938.344.817 0 1.117-.34 2.651-3 1.543-2.675 2.9-5.016 7.456-12.866l5.872-10.125c1.417-2.445 3.316-5.712 4.22-7.258 2.41-4.125 2.419-4.144 2.24-4.74a2 2 0 00-.533-.813l-.384-.322h-6.41c-5.076 0-6.397-.033-6.349-.156.06-.151.882-1.58 4.53-7.867 1.201-2.072 1.717-3.078 1.717-3.35zm-31.842 8.973c-.76-1.316-1.51-2.637-1.666-2.934L18.71 7h22.637l-.42.731-1.676 2.932-1.256 2.2-7.976.003-7.976.003-1.382-2.394zm-8.599 10.962c-.325-.55-.66-1.127-.743-1.283l-.152-.283 3.409.033 3.408.033 3.95 6.802c2.446 4.212 3.922 6.876 3.876 6.996-.088.23-3.077 5.404-3.209 5.557-.05.057-.399-.42-.776-1.063a2729.554 2729.554 0 01-6.566-11.292c-1.433-2.475-2.872-4.95-3.197-5.5zm17.978 4.985c-.077.046-3.542-5.829-3.733-6.329-.078-.205.15-.218 3.712-.218 3.22 0 3.785.026 3.727.176-.038.098-.732 1.321-1.542 2.72-.811 1.397-1.61 2.78-1.777 3.071-.166.292-.34.553-.387.58zm8.579-.61a817.98 817.98 0 013.285-5.656c.178-.28.192-.281 3.518-.281 3.112 0 3.334.014 3.256.215-.077.2-1.038 1.874-4.471 7.784-.74 1.272-2.515 4.338-3.947 6.813-1.431 2.475-2.646 4.545-2.7 4.601-.096.102-3.396-5.428-3.396-5.691 0-.076.304-.65.675-1.274.37-.625 2.072-3.555 3.78-6.51z" fill="#EC1B2E"/></svg>