<svg width="30" height="18" fill="none" xmlns="http://www.w3.org/2000/svg"><path fill-rule="evenodd" clip-rule="evenodd" d="M26.703 12.447s2.426 2.395 3.026 3.504a.19.19 0 01.027.052c.244.41.304.73.184.968-.202.391-.888.588-1.12.604h-4.287c-.299 0-.92-.078-1.676-.6-.577-.403-1.152-1.068-1.708-1.717-.831-.965-1.55-1.802-2.277-1.802a.822.822 0 00-.27.045c-.55.174-1.25.959-1.25 3.048 0 .654-.516 1.026-.877 1.026H14.51c-.669 0-4.152-.234-7.24-3.49C3.486 10.098.087 2.1.054 2.029c-.211-.517.233-.8.713-.8h4.329c.58 0 .77.352.901.667.153.361.72 1.807 1.65 3.432 1.506 2.643 2.432 3.718 3.171 3.718a.79.79 0 00.396-.105c.966-.53.786-3.98.741-4.692 0-.138-.001-1.54-.496-2.218-.354-.486-.957-.675-1.322-.744.098-.141.305-.357.57-.485.662-.33 1.857-.378 3.044-.378h.658c1.287.018 1.62.1 2.088.22.942.224.96.835.878 2.914-.024.594-.05 1.263-.05 2.05 0 .168-.007.356-.007.546-.029 1.067-.066 2.268.687 2.762.097.06.21.093.325.093.261 0 1.043 0 3.162-3.638.93-1.606 1.65-3.5 1.7-3.643.042-.08.168-.303.32-.393a.719.719 0 01.355-.084h5.092c.555 0 .932.084 1.005.294.123.34-.024 1.38-2.349 4.524-.391.523-.735.976-1.036 1.372-2.108 2.766-2.108 2.906.124 5.006z" fill="#EC1B2E"/></svg>