<svg width="30" height="22" fill="none" xmlns="http://www.w3.org/2000/svg"><path d="M29.375 4.134a3.483 3.483 0 00-.958-1.588 3.813 3.813 0 00-1.672-.927c-2.348-.62-11.753-.62-11.753-.62a95.78 95.78 0 00-11.737.588 3.95 3.95 0 00-1.673.95A3.62 3.62 0 00.61 4.132 36.363 36.363 0 000 11c-.015 2.301.189 4.6.61 6.867.171.6.505 1.145.969 1.587a3.87 3.87 0 001.676.928C5.634 21 14.992 21 14.992 21c3.926.044 7.851-.152 11.753-.588a3.814 3.814 0 001.672-.927c.457-.433.787-.982.956-1.588.432-2.263.642-4.564.627-6.868a33.225 33.225 0 00-.625-6.897v.002zM12.002 15.28V6.72l7.825 4.28-7.825 4.279z" fill="#333"/></svg>