<svg width="30" height="25" fill="none" xmlns="http://www.w3.org/2000/svg"><path d="M20.955 24.054c-4.997 0-9.049-3.375-9.049-7.534 0-4.162 4.048-7.537 9.045-7.537S30 12.358 30 16.52c0 2.27-1.219 4.315-3.124 5.693a.607.607 0 00-.225.686l.409 1.519c.025.071.044.145.054.22a.311.311 0 01-.303.303.331.331 0 01-.173-.056l-1.982-1.144a.973.973 0 00-.48-.139c-.09 0-.18.014-.266.04-.96.275-1.956.414-2.955.412zm-3.96-9.163a1.214 1.214 0 101.044-1.875 1.21 1.21 0 00-1.21 1.213c-.013.233.046.464.168.662h-.002zm6.06.002a1.212 1.212 0 101.024-1.875 1.21 1.21 0 00-1.208 1.207c-.007.236.057.469.184.668z" fill="#333"/><path d="M0 9.799c0 2.728 1.464 5.184 3.752 6.855a.721.721 0 01.268.823l-.302 1.125-.187.7a.935.935 0 00-.06.262.36.36 0 00.361.362.425.425 0 00.209-.055l2.377-1.374c.175-.105.374-.162.578-.165.108 0 .217.017.32.047.993.284 2.016.448 3.047.487a8.348 8.348 0 01-.332-2.345c0-5.505 5.222-9.413 10.92-9.413.094 0 .188 0 .282.004C19.85 3.429 15.735.75 10.867.75 4.867.75 0 4.8 0 9.799zm8.685-2.916a1.444 1.444 0 11-2.888 0 1.444 1.444 0 012.888 0zm7.266 0a1.444 1.444 0 11-2.888 0 1.444 1.444 0 012.888 0z" fill="#333"/></svg>