<svg width="400" height="348" fill="none" xmlns="http://www.w3.org/2000/svg"><path fill-rule="evenodd" clip-rule="evenodd" d="M350.024 10.686c0-3.343-1.866-6.9-4.533-8.639C343.555.785 331.778.674 199.931.674 63.053.674 54.056.362 52.253 3.811c-.277.53-.384 1.15-.76 1.872-2.504 4.82-1.777 6.88 8.944 25.347 20.624 35.521 31.674 54.746 31.674 55.106 0 .204-19.166.37-42.593.37-41.926 0-42.629.027-44.817 1.74C2.05 90.322 0 94.01 0 96.71c0 1.81 5.067 11.068 21.098 38.545 3.476 5.958 11.204 19.27 17.174 29.582 5.97 10.313 17.272 29.812 25.116 43.333 7.845 13.52 23.39 40.332 34.546 59.582 11.155 19.249 22.06 37.999 24.233 41.666 2.173 3.666 7.633 13.071 12.133 20.899 8.83 15.359 10.421 17.016 16.335 17.016 2.571 0 4.026-.567 5.882-2.291 1.356-1.261 9.499-14.479 18.094-29.375 23.639-40.966 25.032-43.332 25.504-43.33.24.002 2.316 3.284 4.613 7.292 23.88 41.676 36.887 63.505 38.977 65.413 1.956 1.785 3.337 2.291 6.252 2.291 5.447 0 7.446-2.261 17.677-19.999 10.287-17.836 19.327-33.437 49.703-85.772 12.085-20.822 29.702-51.196 39.149-67.499a20231.556 20231.556 0 0128.132-48.392c16.064-27.496 16.126-27.627 14.931-31.596-.542-1.804-2.14-4.245-3.548-5.425l-2.561-2.144h-42.732c-33.844 0-42.647-.217-42.326-1.042.393-1.007 5.875-10.53 30.192-52.445 8.012-13.81 11.45-20.517 11.45-22.333zM137.748 70.508c-5.066-8.777-10.066-17.58-11.111-19.563l-1.9-3.605H275.65l-2.798 4.876c-1.538 2.683-6.566 11.478-11.171 19.545l-8.374 14.668-53.174.017-53.173.019-9.212-15.957zm-57.326 73.08c-2.168-3.667-4.397-7.517-4.954-8.555l-1.015-1.888 22.724.221 22.725.222 26.335 45.347c16.305 28.078 26.145 45.839 25.837 46.639-.591 1.53-20.512 36.029-21.391 37.044-.334.385-2.663-2.803-5.177-7.083-7.97-13.574-25.833-44.292-43.775-75.281-9.553-16.5-19.142-33-21.31-36.666zm119.854 33.233c-.515.307-23.618-38.859-24.887-42.191-.522-1.37.995-1.459 24.744-1.459 21.472 0 25.232.179 24.846 1.179-.25.65-4.878 8.805-10.283 18.125a6683.258 6683.258 0 00-11.844 20.48c-1.108 1.943-2.268 3.683-2.576 3.866zm57.189-4.067c11.388-19.708 21.242-36.676 21.9-37.708 1.19-1.867 1.283-1.875 23.456-1.875 20.745 0 22.223.099 21.706 1.439-.515 1.335-6.924 12.493-29.81 51.893a40256.98 40256.98 0 00-26.309 45.416c-9.544 16.5-17.643 30.305-17.998 30.678-.641.676-22.643-36.192-22.643-37.943 0-.508 2.024-4.33 4.497-8.495 2.474-4.165 13.815-23.697 25.201-43.405z" fill="#EC1B2E"/></svg>